<svg xmlns="http://www.w3.org/2000/svg" width="377" viewBox="0 0 375 375" height="200" version="1.0">
    <path fill="#FFF" d="M-37.5 -37.5H412.5V412.5H-37.5z" />
    <path fill="#" d="M-37.5 -37.5H412.5V412.5H-37.5z" />
    <g fill="#FFF">
        <g>
            <g>
                <path d="M 51.578125 -128.859375 L 62.390625 -128.859375 L 62.390625 -33.546875 C 62.390625 -8.878906 47.863281 3.453125 18.8125 3.453125 L 2.34375 3.453125 L 2.34375 -6.109375 L 18.8125 -6.109375 C 40.65625 -6.109375 51.578125 -15.253906 51.578125 -33.546875 Z M 2.34375 -9.25 L 2.34375 -18.65625 L 20.0625 -18.65625 C 31.769531 -18.65625 37.625 -24.664062 37.625 -36.6875 L 37.625 -128.859375 L 48.4375 -128.859375 L 48.4375 -33.546875 C 48.4375 -17.347656 38.5625 -9.25 18.8125 -9.25 Z M 2.34375 -9.25" transform="translate(98.068 219.465)" />
            </g>
        </g>
    </g>
    <g fill="#FFF">
        <g>
            <g>
                <path d="M 29.46875 -18.65625 L 53.765625 -18.65625 C 65.472656 -18.65625 71.328125 -24.664062 71.328125 -36.6875 L 71.328125 -88.734375 C 71.328125 -100.742188 65.472656 -106.75 53.765625 -106.75 L 29.46875 -106.75 Z M 53.765625 -9.25 L 21.796875 -9.25 C 19.703125 -9.25 18.65625 -10.296875 18.65625 -12.390625 L 18.65625 -116.3125 L 53.765625 -116.3125 C 72.679688 -116.3125 82.140625 -108.160156 82.140625 -91.859375 L 82.140625 -33.546875 C 82.140625 -17.347656 72.679688 -9.25 53.765625 -9.25 Z M 15.515625 -119.453125 L 15.515625 -10.8125 C 15.515625 -7.675781 17.082031 -6.109375 20.21875 -6.109375 L 52.515625 -6.109375 C 74.359375 -6.109375 85.28125 -15.253906 85.28125 -33.546875 L 85.28125 -91.859375 C 85.28125 -110.253906 74.359375 -119.453125 52.515625 -119.453125 Z M 20.375 3.453125 C 9.925781 3.453125 4.703125 -1.773438 4.703125 -12.234375 L 4.703125 -128.859375 L 52.515625 -128.859375 C 81.566406 -128.859375 96.09375 -116.523438 96.09375 -91.859375 L 96.09375 -33.546875 C 96.09375 -8.878906 81.566406 3.453125 52.515625 3.453125 Z M 20.375 3.453125" transform="translate(176.137 219.465)" />
            </g>
        </g>
    </g>
    <g fill="#FFF">
        <g>
            <g>
                <path d="M 1.617188 0 L 5.289062 0 C 11.203125 0 13.957031 -3.378906 13.957031 -8.484375 L 13.957031 -25.710938 L 10.722656 -25.710938 L 10.722656 -8.667969 C 10.722656 -5.253906 9.402344 -3.085938 5.289062 -3.085938 L 1.617188 -3.085938 Z M 1.617188 0" transform="translate(40.778 261.467)" />
            </g>
        </g>
    </g>
    <g fill="#FFF">
        <g>
            <g>
                <path d="M 3.746094 0 L 12.632812 0 C 20.53125 0 25.820312 -5.253906 25.820312 -12.855469 C 25.820312 -20.457031 20.53125 -25.710938 12.632812 -25.710938 L 3.746094 -25.710938 Z M 6.976562 -3.085938 L 6.976562 -22.625 L 12.488281 -22.625 C 18.472656 -22.625 22.515625 -18.695312 22.515625 -12.855469 C 22.515625 -7.015625 18.511719 -3.085938 12.632812 -3.085938 Z M 6.976562 -3.085938" transform="translate(58.407 261.467)" />
            </g>
        </g>
    </g>
    <g fill="#FFF">
        <g>
            <g>
                <path d="M 15.132812 0.476562 C 21.375 0.476562 26.445312 -3.304688 27.988281 -9.035156 L 24.570312 -9.035156 C 23.25 -5.179688 19.613281 -2.753906 15.242188 -2.753906 C 9.511719 -2.753906 5.4375 -6.90625 5.4375 -12.855469 C 5.4375 -18.804688 9.511719 -22.953125 15.242188 -22.953125 C 19.503906 -22.953125 22.992188 -20.675781 24.3125 -16.96875 L 27.765625 -16.96875 C 26.078125 -22.625 21.191406 -26.1875 15.132812 -26.1875 C 7.566406 -26.1875 2.128906 -20.605469 2.128906 -12.855469 C 2.128906 -5.105469 7.566406 0.476562 15.132812 0.476562 Z M 15.132812 0.476562" transform="translate(95.464 261.467)" />
            </g>
        </g>
    </g>
    <g fill="#FFF">
        <g>
            <g>
                <path d="M 15.425781 0.476562 C 23.25 0.476562 28.757812 -5.03125 28.757812 -12.855469 C 28.757812 -20.675781 23.25 -26.1875 15.425781 -26.1875 C 7.601562 -26.1875 2.128906 -20.675781 2.128906 -12.855469 C 2.128906 -5.03125 7.601562 0.476562 15.425781 0.476562 Z M 5.4375 -12.855469 C 5.4375 -18.839844 9.511719 -22.953125 15.425781 -22.953125 C 21.339844 -22.953125 25.414062 -18.839844 25.414062 -12.855469 C 25.414062 -6.867188 21.339844 -2.753906 15.425781 -2.753906 C 9.511719 -2.753906 5.4375 -6.867188 5.4375 -12.855469 Z M 5.4375 -12.855469" transform="translate(125.433 261.467)" />
            </g>
        </g>
    </g>
    <g fill="#FFF">
        <g>
            <g>
                <path d="M 3.746094 0 L 6.976562 0 L 6.976562 -19.6875 L 15.5 -6.832031 L 18.144531 -6.832031 L 26.664062 -19.648438 L 26.664062 0 L 29.894531 0 L 29.894531 -25.710938 L 26.882812 -25.710938 L 16.859375 -10.46875 L 6.757812 -25.710938 L 3.746094 -25.710938 Z M 3.746094 0" transform="translate(156.284 261.467)" />
            </g>
        </g>
    </g>
    <g fill="#FFF">
        <g>
            <g>
                <path d="M 3.746094 0 L 6.976562 0 L 6.976562 -8.449219 L 12.449219 -8.449219 C 18.253906 -8.449219 22 -11.789062 22 -17.078125 C 22 -22.332031 18.253906 -25.710938 12.449219 -25.710938 L 3.746094 -25.710938 Z M 6.976562 -11.457031 L 6.976562 -22.625 L 12.378906 -22.625 C 16.527344 -22.625 18.695312 -20.714844 18.695312 -17.042969 C 18.695312 -13.367188 16.527344 -11.457031 12.378906 -11.457031 Z M 6.976562 -11.457031" transform="translate(189.925 261.467)" />
            </g>
        </g>
    </g>
    <g fill="#FFF">
        <g>
            <g>
                <path d="M 13.367188 0.441406 C 19.574219 0.441406 23.320312 -3.636719 23.320312 -10.46875 L 23.320312 -25.710938 L 20.089844 -25.710938 L 20.089844 -10.6875 C 20.089844 -5.4375 17.777344 -2.71875 13.367188 -2.71875 C 9 -2.71875 6.648438 -5.4375 6.648438 -10.6875 L 6.648438 -25.710938 L 3.453125 -25.710938 L 3.453125 -10.46875 C 3.453125 -3.636719 7.160156 0.441406 13.367188 0.441406 Z M 13.367188 0.441406" transform="translate(213.393 261.467)" />
            </g>
        </g>
    </g>
    <g fill="#FFF">
        <g>
            <g>
                <path d="M 9.953125 0 L 13.183594 0 L 13.183594 -22.625 L 21.851562 -22.625 L 21.851562 -25.710938 L 1.25 -25.710938 L 1.25 -22.625 L 9.953125 -22.625 Z M 9.953125 0" transform="translate(240.167 261.467)" />
            </g>
        </g>
    </g>
    <g fill="#FFF">
        <g>
            <g>
                <path d="M 3.746094 0 L 19.757812 0 L 19.757812 -3.011719 L 6.976562 -3.011719 L 6.976562 -11.605469 L 18.4375 -11.605469 L 18.4375 -14.582031 L 6.976562 -14.582031 L 6.976562 -22.699219 L 19.355469 -22.699219 L 19.355469 -25.710938 L 3.746094 -25.710938 Z M 3.746094 0" transform="translate(263.305 261.467)" />
            </g>
        </g>
    </g>
    <g fill="#FFF">
        <g>
            <g>
                <path d="M 3.746094 0 L 6.976562 0 L 6.976562 -9.21875 L 12.632812 -9.21875 L 18.914062 0 L 22.808594 0 L 16.34375 -9.550781 C 20.089844 -10.46875 22.402344 -13.296875 22.402344 -17.445312 C 22.402344 -22.550781 18.878906 -25.710938 13.550781 -25.710938 L 3.746094 -25.710938 Z M 6.976562 -12.304688 L 6.976562 -22.625 L 13.183594 -22.625 C 16.929688 -22.625 19.097656 -20.714844 19.097656 -17.445312 C 19.097656 -14.175781 16.929688 -12.304688 13.183594 -12.304688 Z M 6.976562 -12.304688" transform="translate(285.451 261.467)" />
            </g>
        </g>
    </g>
    <g fill="#FFF">
        <g>
            <g>
                <path d="M 12.304688 0.476562 C 17.921875 0.476562 21.558594 -2.277344 21.558594 -6.757812 C 21.558594 -10.539062 19.023438 -12.816406 12.449219 -14.433594 C 7.457031 -15.644531 5.804688 -16.96875 5.804688 -19.097656 C 5.804688 -21.558594 8.007812 -23.101562 11.679688 -23.101562 C 15.460938 -23.101562 17.8125 -21.191406 17.886719 -18.105469 L 21.082031 -18.105469 C 21.042969 -23.101562 17.445312 -26.1875 11.679688 -26.1875 C 6.058594 -26.1875 2.496094 -23.433594 2.496094 -19.097656 C 2.496094 -15.132812 5.324219 -12.929688 11.644531 -11.421875 C 16.269531 -10.320312 18.21875 -9.035156 18.21875 -6.648438 C 18.21875 -4.113281 15.941406 -2.609375 12.304688 -2.609375 C 8.300781 -2.609375 5.507812 -4.589844 5.4375 -7.894531 L 2.203125 -7.894531 C 2.242188 -2.863281 6.171875 0.476562 12.304688 0.476562 Z M 12.304688 0.476562" transform="translate(310.462 261.467)" />
            </g>
        </g>
    </g>

</svg>