<svg xmlns="http://www.w3.org/2000/svg" width="377"  viewBox="0 0 375 375" height="200" version="1.0"><path fill="#FFF" d="M-37.5 -37.5H412.5V412.5H-37.5z"/><path fill="#" d="M-37.5 -37.5H412.5V412.5H-37.5z"/><g fill="#FFF"><g><g><path d="M 51.578125 -128.859375 L 62.390625 -128.859375 L 62.390625 -33.546875 C 62.390625 -8.878906 47.863281 3.453125 18.8125 3.453125 L 2.34375 3.453125 L 2.34375 -6.109375 L 18.8125 -6.109375 C 40.65625 -6.109375 51.578125 -15.253906 51.578125 -33.546875 Z M 2.34375 -9.25 L 2.34375 -18.65625 L 20.0625 -18.65625 C 31.769531 -18.65625 37.625 -24.664062 37.625 -36.6875 L 37.625 -128.859375 L 48.4375 -128.859375 L 48.4375 -33.546875 C 48.4375 -17.347656 38.5625 -9.25 18.8125 -9.25 Z M 2.34375 -9.25" transform="translate(98.068 219.465)"/></g></g></g><g fill="#FFF"><g><g><path d="M 29.46875 -18.65625 L 53.765625 -18.65625 C 65.472656 -18.65625 71.328125 -24.664062 71.328125 -36.6875 L 71.328125 -88.734375 C 71.328125 -100.742188 65.472656 -106.75 53.765625 -106.75 L 29.46875 -106.75 Z M 53.765625 -9.25 L 21.796875 -9.25 C 19.703125 -9.25 18.65625 -10.296875 18.65625 -12.390625 L 18.65625 -116.3125 L 53.765625 -116.3125 C 72.679688 -116.3125 82.140625 -108.160156 82.140625 -91.859375 L 82.140625 -33.546875 C 82.140625 -17.347656 72.679688 -9.25 53.765625 -9.25 Z M 15.515625 -119.453125 L 15.515625 -10.8125 C 15.515625 -7.675781 17.082031 -6.109375 20.21875 -6.109375 L 52.515625 -6.109375 C 74.359375 -6.109375 85.28125 -15.253906 85.28125 -33.546875 L 85.28125 -91.859375 C 85.28125 -110.253906 74.359375 -119.453125 52.515625 -119.453125 Z M 20.375 3.453125 C 9.925781 3.453125 4.703125 -1.773438 4.703125 -12.234375 L 4.703125 -128.859375 L 52.515625 -128.859375 C 81.566406 -128.859375 96.09375 -116.523438 96.09375 -91.859375 L 96.09375 -33.546875 C 96.09375 -8.878906 81.566406 3.453125 52.515625 3.453125 Z M 20.375 3.453125" transform="translate(176.137 219.465)"/></g></g></g><g fill="#FFF"><g><g><path d="M 1.617188 0 L 5.289062 0 C 11.203125 0 13.957031 -3.378906 13.957031 -8.484375 L 13.957031 -25.710938 L 10.722656 -25.710938 L 10.722656 -8.667969 C 10.722656 -5.253906 9.402344 -3.085938 5.289062 -3.085938 L 1.617188 -3.085938 Z M 1.617188 0" transform="translate(40.778 261.467)"/></g></g></g><g fill="#FFF"><g><g><path d="M 3.746094 0 L 12.632812 0 C 20.53125 0 25.820312 -5.253906 25.820312 -12.855469 C 25.820312 -20.457031 20.53125 -25.710938 12.632812 -25.710938 L 3.746094 -25.710938 Z M 6.976562 -3.085938 L 6.976562 -22.625 L 12.488281 -22.625 C 18.472656 -22.625 22.515625 -18.695312 22.515625 -12.855469 C 22.515625 -7.015625 18.511719 -3.085938 12.632812 -3.085938 Z M 6.976562 -3.085938" transform="translate(58.407 261.467)"/></g></g></g><g fill="#FFF"><g><g><path d="M 15.132812 0.476562 C 21.375 0.476562 26.445312 -3.304688 27.988281 -9.035156 L 24.570312 -9.035156 C 23.25 -5.179688 19.613281 -2.753906 15.242188 -2.753906 C 9.511719 -2.753906 5.4375 -6.90625 5.4375 -12.855469 C 5.4375 -18.804688 9.511719 -22.953125 15.242188 -22.953125 C 19.503906 -22.953125 22.992188 -20.675781 24.3125 -16.96875 L 27.765625 -16.96875 C 26.078125 -22.625 21.191406 -26.1875 15.132812 -26.1875 C 7.566406 -26.1875 2.128906 -20.605469 2.128906 -12.855469 C 2.128906 -5.105469 7.566406 0.476562 15.132812 0.476562 Z M 15.132812 0.476562" transform="translate(95.464 261.467)"/></g></g></g><g fill="#FFF"><g><g><path d="M 15.425781 0.476562 C 23.25 0.476562 28.757812 -5.03125 28.757812 -12.855469 C 28.757812 -20.675781 23.25 -26.1875 15.425781 -26.1875 C 7.601562 -26.1875 2.128906 -20.675781 2.128906 -12.855469 C 2.128906 -5.03125 7.601562 0.476562 15.425781 0.476562 Z M 5.4375 -12.855469 C 5.4375 -18.839844 9.511719 -22.953125 15.425781 -22.953125 C 21.339844 -22.953125 25.414062 -18.839844 25.414062 -12.855469 C 25.414062 -6.867188 21.339844 -2.753906 15.425781 -2.753906 C 9.511719 -2.753906 5.4375 -6.867188 5.4375 -12.855469 Z M 5.4375 -12.855469" transform="translate(125.433 261.467)"/></g></g></g><g fill="#FFF"><g><g><path d="M 3.746094 0 L 6.976562 0 L 6.976562 -19.6875 L 15.5 -6.832031 L 18.144531 -6.832031 L 26.664062 -19.648438 L 26.664062 0 L 29.894531 0 L 29.894531 -25.710938 L 26.882812 -25.710938 L 16.859375 -10.46875 L 6.757812 -25.710938 L 3.746094 -25.710938 Z M 3.746094 0" transform="translate(156.284 261.467)"/></g></g></g><g fill="#FFF"><g><g><path d="M 3.746094 0 L 6.976562 0 L 6.976562 -8.449219 L 12.449219 -8.449219 C 18.253906 -8.449219 22 -11.789062 22 -17.078125 C 22 -22.332031 18.253906 -25.710938 12.449219 -25.710938 L 3.746094 -25.710938 Z M 6.976562 -11.457031 L 6.976562 -22.625 L 12.378906 -22.625 C 16.527344 -22.625 18.695312 -20.714844 18.695312 -17.042969 C 18.695312 -13.367188 16.527344 -11.457031 12.378906 -11.457031 Z M 6.976562 -11.457031" transform="translate(189.925 261.467)"/></g></g></g><g fill="#FFF"><g><g><path d="M 13.367188 0.441406 C 19.574219 0.441406 23.320312 -3.636719 23.320312 -10.46875 L 23.320312 -25.710938 L 20.089844 -25.710938 L 20.089844 -10.6875 C 20.089844 -5.4375 17.777344 -2.71875 13.367188 -2.71875 C 9 -2.71875 6.648438 -5.4375 6.648438 -10.6875 L 6.648438 -25.710938 L 3.453125 -25.710938 L 3.453125 -10.46875 C 3.453125 -3.636719 7.160156 0.441406 13.367188 0.441406 Z M 13.367188 0.441406" transform="translate(213.393 261.467)"/></g></g></g><g fill="#FFF"><g><g><path d="M 9.953125 0 L 13.183594 0 L 13.183594 -22.625 L 21.851562 -22.625 L 21.851562 -25.710938 L 1.25 -25.710938 L 1.25 -22.625 L 9.953125 -22.625 Z M 9.953125 0" transform="translate(240.167 261.467)"/></g></g></g><g fill="#FFF"><g><g><path d="M 3.746094 0 L 19.757812 0 L 19.757812 -3.011719 L 6.976562 -3.011719 L 6.976562 -11.605469 L 18.4375 -11.605469 L 18.4375 -14.582031 L 6.976562 -14.582031 L 6.976562 -22.699219 L 19.355469 -22.699219 L 19.355469 -25.710938 L 3.746094 -25.710938 Z M 3.746094 0" transform="translate(263.305 261.467)"/></g></g></g><g fill="#FFF"><g><g><path d="M 3.746094 0 L 6.976562 0 L 6.976562 -9.21875 L 12.632812 -9.21875 L 18.914062 0 L 22.808594 0 L 16.34375 -9.550781 C 20.089844 -10.46875 22.402344 -13.296875 22.402344 -17.445312 C 22.402344 -22.550781 18.878906 -25.710938 13.550781 -25.710938 L 3.746094 -25.710938 Z M 6.976562 -12.304688 L 6.976562 -22.625 L 13.183594 -22.625 C 16.929688 -22.625 19.097656 -20.714844 19.097656 -17.445312 C 19.097656 -14.175781 16.929688 -12.304688 13.183594 -12.304688 Z M 6.976562 -12.304688" transform="translate(285.451 261.467)"/></g></g></g><g fill="#FFF"><g><g><path d="M 12.304688 0.476562 C 17.921875 0.476562 21.558594 -2.277344 21.558594 -6.757812 C 21.558594 -10.539062 19.023438 -12.816406 12.449219 -14.433594 C 7.457031 -15.644531 5.804688 -16.96875 5.804688 -19.097656 C 5.804688 -21.558594 8.007812 -23.101562 11.679688 -23.101562 C 15.460938 -23.101562 17.8125 -21.191406 17.886719 -18.105469 L 21.082031 -18.105469 C 21.042969 -23.101562 17.445312 -26.1875 11.679688 -26.1875 C 6.058594 -26.1875 2.496094 -23.433594 2.496094 -19.097656 C 2.496094 -15.132812 5.324219 -12.929688 11.644531 -11.421875 C 16.269531 -10.320312 18.21875 -9.035156 18.21875 -6.648438 C 18.21875 -4.113281 15.941406 -2.609375 12.304688 -2.609375 C 8.300781 -2.609375 5.507812 -4.589844 5.4375 -7.894531 L 2.203125 -7.894531 C 2.242188 -2.863281 6.171875 0.476562 12.304688 0.476562 Z M 12.304688 0.476562" transform="translate(310.462 261.467)"/></g></g></g><g fill="#FFF"><g><g><path d="M 3.25 0 L 4.886719 0 L 4.886719 -3.890625 C 5.695312 -6.050781 6.933594 -9.359375 7.820312 -11.617188 L 6.144531 -11.617188 L 4.058594 -6.109375 L 1.992188 -11.617188 L 0.320312 -11.617188 C 1.203125 -9.359375 2.441406 -6.050781 3.25 -3.890625 Z M 3.25 0" transform="translate(135.72 286.488)"/></g></g></g><g fill="#FFF"><g><g><path d="M 4.191406 0.09375 C 6.128906 0.09375 7.5 -1.222656 7.5 -2.96875 L 7.5 -8.683594 C 7.5 -10.429688 6.128906 -11.746094 4.191406 -11.746094 C 2.253906 -11.746094 0.882812 -10.429688 0.882812 -8.683594 L 0.882812 -2.96875 C 0.882812 -1.222656 2.253906 0.09375 4.191406 0.09375 Z M 4.191406 -1.351562 C 3.363281 -1.351562 2.519531 -1.84375 2.519531 -3.101562 L 2.519531 -8.550781 C 2.519531 -9.8125 3.363281 -10.300781 4.191406 -10.300781 C 5.019531 -10.300781 5.863281 -9.8125 5.863281 -8.550781 L 5.863281 -3.101562 C 5.863281 -1.84375 5.019531 -1.351562 4.191406 -1.351562 Z M 4.191406 -1.351562" transform="translate(143.855 286.488)"/></g></g></g><g fill="#FFF"><g><g><path d="M 4.285156 0.09375 C 6.222656 0.09375 7.59375 -1.222656 7.59375 -2.96875 L 7.59375 -11.617188 L 5.957031 -11.617188 L 5.957031 -3.101562 C 5.957031 -1.84375 5.113281 -1.351562 4.285156 -1.351562 C 3.457031 -1.351562 2.613281 -1.84375 2.613281 -3.101562 L 2.613281 -11.617188 L 0.976562 -11.617188 L 0.976562 -2.96875 C 0.976562 -1.222656 2.347656 0.09375 4.285156 0.09375 Z M 4.285156 0.09375" transform="translate(152.233 286.488)"/></g></g></g><g fill="#FFF"><g><g><path d="M 0.976562 0 L 2.613281 0 L 2.613281 -3.738281 L 4.191406 -3.738281 C 4.304688 -3.738281 4.398438 -3.738281 4.511719 -3.757812 L 5.675781 0 L 7.273438 0 L 5.921875 -4.191406 C 6.785156 -4.679688 7.40625 -5.601562 7.40625 -6.839844 L 7.40625 -8.496094 C 7.40625 -10.488281 5.84375 -11.617188 4.191406 -11.617188 L 0.976562 -11.617188 Z M 2.613281 -5.1875 L 2.613281 -10.167969 L 4.117188 -10.167969 C 4.90625 -10.167969 5.769531 -9.527344 5.769531 -8.230469 L 5.769531 -7.140625 C 5.769531 -5.828125 4.90625 -5.1875 4.117188 -5.1875 Z M 2.613281 -5.1875" transform="translate(160.799 286.488)"/></g></g></g><g fill="#FFF"><g><g><path d="M 0.976562 0 L 2.613281 0 L 2.613281 -3.027344 L 4.191406 -3.027344 C 5.84375 -3.027344 7.40625 -4.152344 7.40625 -6.128906 L 7.40625 -8.496094 C 7.40625 -10.488281 5.84375 -11.617188 4.191406 -11.617188 L 0.976562 -11.617188 Z M 2.613281 -4.472656 L 2.613281 -10.167969 L 4.117188 -10.167969 C 4.90625 -10.167969 5.769531 -9.527344 5.769531 -8.230469 L 5.769531 -6.429688 C 5.769531 -5.113281 4.90625 -4.472656 4.117188 -4.472656 Z M 2.613281 -4.472656" transform="translate(172.277 286.488)"/></g></g></g><g fill="#FFF"><g><g><path d="M 4.171875 0.09375 C 5.9375 0.09375 7.460938 -1.242188 7.460938 -2.988281 L 7.460938 -3.195312 L 5.828125 -3.195312 L 5.828125 -2.988281 C 5.828125 -1.765625 4.925781 -1.351562 4.171875 -1.351562 C 3.363281 -1.351562 2.519531 -1.84375 2.519531 -3.101562 L 2.519531 -8.550781 C 2.519531 -9.8125 3.363281 -10.300781 4.171875 -10.300781 C 4.925781 -10.300781 5.828125 -9.886719 5.828125 -8.664062 L 5.828125 -8.457031 L 7.460938 -8.457031 L 7.460938 -8.664062 C 7.460938 -10.414062 5.9375 -11.746094 4.171875 -11.746094 C 2.253906 -11.746094 0.882812 -10.429688 0.882812 -8.683594 L 0.882812 -2.96875 C 0.882812 -1.222656 2.253906 0.09375 4.171875 0.09375 Z M 4.171875 0.09375" transform="translate(180.373 286.488)"/></g></g></g><g fill="#FFF"><g><g><path d="M 0.976562 0 L 4.265625 0 C 6.128906 0 7.535156 -1.296875 7.535156 -3.0625 L 7.535156 -8.53125 C 7.535156 -10.300781 6.128906 -11.617188 4.265625 -11.617188 L 0.976562 -11.617188 Z M 2.613281 -1.445312 L 2.613281 -10.167969 L 4.246094 -10.167969 C 5.035156 -10.167969 5.902344 -9.699219 5.902344 -8.4375 L 5.902344 -3.175781 C 5.902344 -1.917969 5.035156 -1.445312 4.246094 -1.445312 Z M 2.613281 -1.445312" transform="translate(191.72 286.488)"/></g></g></g><g fill="#FFF"><g><g><path d="M 2.480469 0 L 4.117188 0 L 4.117188 -10.167969 L 6.183594 -10.167969 L 6.183594 -11.617188 L 0.414062 -11.617188 L 0.414062 -10.167969 L 2.480469 -10.167969 Z M 2.480469 0" transform="translate(216.29 286.488)"/></g></g></g></svg>